{"title":"Shun.Li.and.the.Poet.[Io.Sono.Li].2011.DVDRip.XviD.HORiZON-ArtSu","uid":8342062,"size":1465878963,"categoryP":"video","categoryS":"movies","magnet":"?xt=urn:btih:70db0035c572067dfca9672e7d6a6d0c35b5b2e4&amp;dn=Shun.Li.and.the.Poet.%5BIo.Sono.Li%5D.2011.DVDRip.XviD.HORiZON-ArtSu&amp;tr=udp%3A%2F%2Ftracker.openbittorrent.com%3A80&amp;tr=udp%3A%2F%2Fopen.demonii.com%3A1337&amp;tr=udp%3A%2F%2Ftracker.coppersurfer.tk%3A6969&amp;tr=udp%3A%2F%2Fexodus.desync.com%3A6969","seeders":4,"leechers":0,"uploader":"lletaif","files":2,"time":1365113897,"description":"Title:\nShun Li and the Poet Aka Io Sono Li\n\nCountry:\nItaly/China\n\nLanguage:\nItalian/Mandarin\n\nSubtitle:\nSpanish\n\nDirector:\nAndrea Segre\n\nWriters:\nAndrea Segre (story), Andrea Segre (screenplay)\n\nStars:\nTao Zhao, Rade Serbedzija, Marco Paolini \n\nSynopsis:\nA study of the friendship between a Chinese woman and a fisherman who came to Italy from Yugoslavia many years ago, who live in a small city-island in the Veneto lagoon. \n\nTrivia:\n\n* Won 3 prizes in Venice Film Festival 2011\n\n* Won David Donatello 2012 - Best Actress (Migliore Attrice Protagonista):\nTao Zhao \n\nImdb: &lt;a href=&quot;\nhttp://www.imdb.com/title/tt2036388&quot; rel=&quot;nofollow&quot; target=&quot;_NEW&quot;&gt;\nhttp://www.imdb.com/title/tt2036388&lt;/a&gt;\n\nTrailer: &lt;a href=&quot;\nhttp://www.bandes-annonces.fr/film/bande-annonce-lapetitevenise.html&quot; rel=&quot;nofollow&quot; target=&quot;_NEW&quot;&gt;\nhttp://www.bandes-annonces.fr/film/bande-annonce-lapetitevenise.html&lt;/a&gt;\n\n\nMedia Info:\n\nGeneral\nComplete name                            : Shun.Li.and.the.Poet.[Io.Sono.Li].2011.DVDRip.XviD.HORiZON-ArtSubs\nFormat                                   : AVI\nFormat/Info                              : Audio Video Interleave\nFile size                                : 1.37 GiB\nDuration                                 : 1h 33mn\nOverall bit rate                         : 2 095 Kbps\nWriting application                      : FairUse Wizard - http://fairusewizard.com\nWriting library                          : The best and REALLY easy backup tool\n\nVideo\nID                                       : 0\nFormat                                   : MPEG-4 Visual\nFormat profile                           : Advanced Simple@L5\nFormat settings, BVOP                    : 1\nFormat settings, QPel                    : No\nFormat settings, GMC                     : No warppoints\nFormat settings, Matrix                  : Default (MPEG)\nMuxing mode                              : Packed bitstream\nCodec ID                                 : XVID\nCodec ID/Hint                            : XviD\nDuration                                 : 1h 33mn\nBit rate                                 : 1 637 Kbps\nWidth                                    : 688 pixels\nHeight                                   : 288 pixels\nDisplay aspect ratio                     : 2.40:1\nFrame rate                               : 25.000 fps\nColor space                              : YUV\nChroma subsampling                       : 4:2:0\nBit depth                                : 8 bits\nScan type                                : Progressive\nCompression mode                         : Lossy\nBits/(Pixel*Frame)                       : 0.331\nStream size                              : 1.07 GiB (78%)\nWriting library                          : XviD 1.2.0.dev47 (UTC 2006-11-01)\n\nAudio\nID                                       : 1\nFormat                                   : AC-3\nFormat/Info                              : Audio Coding 3\nMode extension                           : CM (complete main)\nFormat settings, Endianness              : Big\nCodec ID                                 : 2000\nDuration                                 : 1h 33mn\nBit rate mode                            : Constant\nBit rate                                 : 448 Kbps\nChannel(s)                               : 6 channels\nChannel positions                        : Front: L C R, Side: L R, LFE\nSampling rate                            : 48.0 KHz\nBit depth                                : 16 bits\nCompression mode                         : Lossy\nStream size                              : 299 MiB (21%)\nAlignment                                : Split accross interleaves\nInterleave, duration                     : 40 ms (1.00 video frame)\nInterleave, preload duration             : 500 ms\n\n","torrent":{"xt":"urn:btih:70db0035c572067dfca9672e7d6a6d0c35b5b2e4","amp;dn":"Shun.Li.and.the.Poet.%5BIo.Sono.Li%5D.2011.DVDRip.XviD.HORiZON-ArtSu","amp;tr":["udp%3A%2F%2Ftracker.openbittorrent.com%3A80","udp%3A%2F%2Fopen.demonii.com%3A1337","udp%3A%2F%2Ftracker.coppersurfer.tk%3A6969","udp%3A%2F%2Fexodus.desync.com%3A6969"],"infoHash":"70db0035c572067dfca9672e7d6a6d0c35b5b2e4","infoHashBuffer":{"type":"Buffer","data":[112,219,0,53,197,114,6,125,252,169,103,46,125,106,109,12,53,181,178,228]},"announce":[],"urlList":[]}}